<svg xmlns="http://www.w3.org/2000/svg"
     viewBox="0 0 24 24"
     fill="none">
  <path
    fill="#B8975C"
    d="M11.65 3.25c-4.55 0-7.8 3.33-7.8 8.03 0 4.72 3.27 8.06 7.8 8.06
       1.21 0 2.31-.22 3.28-.64.93 1.45 2.13 2.05 3.53 2.05
       1.13 0 2.14-.38 2.89-1.13l-1.1-1.55c-.41.36-.84.54-1.29.54
       -.55 0-1.04-.3-1.48-.9 1.27-1.45 1.97-3.55 1.97-6.43
       0-4.7-3.25-8.03-7.8-8.03Zm0 2.08c3.07 0 5.11 2.37 5.11 5.95
       0 1.82-.34 3.25-.98 4.27-.8-1.24-1.83-1.86-3.09-1.86
       -1.29 0-2.39.63-3.28 1.88l1.5 1.17c.5-.65 1.02-.98 1.57-.98
       .72 0 1.34.45 1.87 1.35-.74.11-1.55.17-2.42.17
       -3.18 0-5.39-2.38-5.39-6.04 0-3.58 2.09-5.95 5.11-5.95Z"/>
</svg>
