<svg xmlns="http://www.w3.org/2000/svg" viewBox="0 0 64 64" role="img" aria-label="WhatsApp">
  <path d="M32 10a21 21 0 0 0-18.2 31.5L11 53l11.8-2.7A21 21 0 1 0 32 10Z" fill="none" stroke="#B89A6A" stroke-width="3.6" stroke-linejoin="round"/>
  <path d="M24.1 21.5c.7-.4 1.4-.2 1.8.5l2.6 5.1c.3.6.2 1.2-.2 1.7l-2 2.3c2.3 4.4 5.6 7.6 10.1 9.7l2.1-2.4c.4-.5 1.1-.7 1.7-.4l5.2 2.5c.7.3 1 .9.8 1.6-.6 3.5-3.1 5.6-6.6 5.6-9.8 0-22.9-12.4-22.9-22.1 0-2.2 1.1-3.5 2.3-4.3 1.4-.9 3.4-.5 5.1.2Z" fill="#B89A6A"/>
</svg>
